# xmcd
# 
# Track frame offsets:
#     150
#     14821
#     23947
#     42789
#     59449
#     77902
#     91691
#     105644
#     127968
#     142713
#     160348
#     176157
#     193795
#     206355
#     220691
#     234872
# 
# Disc length: 3592
# 
# Revision: 8
# Processed by: cddbd v1.5.2PL0 Copyright (c) Steve Scherf et al.
# Submitted via: fre:ac v1.0.17
# 
DISCID=d00e0610
DTITLE=Lynda Lemay - Un paradis quelque part
DYEAR=2005
DGENRE=Chanson française
TTITLE0=Est-ce que tu m'prends au sérieux
TTITLE1=J't'ai pas entendu
TTITLE2=Un paradis quelque part
TTITLE3=Paul-Émile à des fleurs
TTITLE4=Les torchons
TTITLE5=On te ramasse
TTITLE6=Le bon veuf
TTITLE7=Monsieur marchand
TTITLE8=Qu'est-ce qu'on va devenir, mon homme
TTITLE9=Mes chemins à l'envers
TTITLE10=Où étais-tu
TTITLE11=Je te trompe
TTITLE12=Les canards
TTITLE13=Mal de l'air
TTITLE14=Le vieil homme et l'écervelée
TTITLE15=Comment veux-tu qu'je sache
EXTD=YEAR: 2005
EXTT0=
EXTT1=
EXTT2=
EXTT3=
EXTT4=
EXTT5=
EXTT6=
EXTT7=
EXTT8=
EXTT9=
EXTT10=
EXTT11=
EXTT12=
EXTT13=
EXTT14=
EXTT15=
PLAYORDER=
